<?xml version="1.0" encoding="utf-8"?>
<!-- Generator: Adobe Illustrator 20.1.0, SVG Export Plug-In . SVG Version: 6.00 Build 0)  -->
<svg version="1.1" xmlns="http://www.w3.org/2000/svg" xmlns:xlink="http://www.w3.org/1999/xlink" x="0px" y="0px"
	 viewBox="0 0 612 792" style="enable-background:new 0 0 612 792;" xml:space="preserve">
<style type="text/css">
	.st0{display:none;}
	.st1{display:inline;}
	.st2{fill:none;stroke:#000000;stroke-miterlimit:10;}
	
		.st3{fill-rule:evenodd;clip-rule:evenodd;fill:none;stroke:#FF0000;stroke-width:8.5006;stroke-linecap:round;stroke-linejoin:round;stroke-miterlimit:10;}
	
		.st4{fill-rule:evenodd;clip-rule:evenodd;fill:none;stroke:#FF0000;stroke-width:7.5005;stroke-linecap:round;stroke-linejoin:round;stroke-miterlimit:10;}
	.st5{fill-rule:evenodd;clip-rule:evenodd;fill:#FF0000;}
	.st6{fill:#FF0000;}
	.st7{font-family:'Herculanum';}
	.st8{font-size:35px;}
	.st9{font-size:27px;}
	
		.st10{fill-rule:evenodd;clip-rule:evenodd;fill:none;stroke:#FF0000;stroke-width:4.5003;stroke-linecap:round;stroke-linejoin:round;stroke-miterlimit:10;}
</style>
<g id="Base" class="st0">
	<g class="st1">
		<polyline class="st2" points="59,149.5 552,149.5 552,645 59,645 59,149.5 		"/>
		<line class="st2" x1="59" y1="149.5" x2="552" y2="645"/>
		<line class="st2" x1="552" y1="149.5" x2="59" y2="645"/>
	</g>
</g>
<g id="Structure">
	<circle class="st3" cx="305.5" cy="396" r="243.5"/>
	<path class="st4" d="M96,397.7c0-117,94.8-211.8,211.8-211.8c117,0,211.8,94.8,211.8,211.8c0,117-94.8,211.8-211.8,211.8
		C190.8,609.5,96,514.7,96,397.7z"/>
	<path class="st5" d="M309.3,504.2c-11-0.5-13.5,9-13.5,15c0,8,3.5,12.5,14,15.5v26.5h-70.5v-67h70V504.2z M262.3,489.2h16H262.3z
		 M243.8,481.2h33v2h-14.5c-2,0-5.5,4-6.5,6h-18c-0.5,0.5-1.5,1-2,1c0.5-5.5,1-8.5,1-11.5C238.8,479.2,242.3,481.2,243.8,481.2z
		 M367.8,458.7c2.5-0.5,10.5,3,10.5,8.5v52.5c0.5,4.5-2.5,9.5-7.5,9.5h-51.5c-7,0-17.5-1.5-17.5-10c0-14.5,14-8,23-10v-42.5
		c1-5.5,6-9,11-8.5L367.8,458.7z M364.3,452.7h-32.5c-5-1-13,8-13,13.5v37.5h-4v-15l-26.5,0.5c-5.5-1-6-4.5-6-7c0-3,1.5-6,4.5-6h20
		c2.5-1,8-1,9-4.5v-13c0.5-1.5,0-5,3.5-7c2.5-2,5-1,7.5-1c4-0.5,11.5-0.5,12.5-0.5C347.8,450.2,359.8,449.7,364.3,452.7z
		 M289.3,433.7c6,1,3.5,13.5,3.5,14.5s2,11.5-2,15h-34c-0.5-0.5-1.5-1-2-2v-25.5c0.5-1,2-2,3-2H289.3z M289.8,427.7
		c2,0.5,4,0.5,5.5,1.5c4,3,3.5,14.5,3.5,19c0,3.5,2.5,21-8,21h-34.5c-1-0.5-3-1-4-2c-2-1-3.5-4-3.5-5v-27.5c0-4,5-7.5,8.5-7H289.8z
		 M303.8,419.7c1.5,0,6,2.5,6,4.5v46l-23.5,0.5c-1.5,0.5-5,1-7,4h-35.5c-1.5-1-4.5-3.5-4.5-4.5v-15.5c0.5-3,1-6,1-9c0-2,0.5-4,0.5-6
		s0.5-4,0.5-6s0.5-4.5,0.5-6.5c1-2.5-2-7.5,3-7.5H303.8z M370.3,389.7v25.5l3.5,39c-1-0.5-2.5-1-3.5-1.5c0-5.5-8-7.5-12.5-7.5h-37
		c-1.5,0.5-3,1-4.5,2v-24c-0.5-4.5-7-10-12-10h-61.5v-23.5H370.3z M439.3,361.2v23h-20.5v-23H439.3z M387.3,361.2v23H242.8v-23
		H387.3z M207.3,361.2v23h-35.5v-23H207.3z M410.3,339.7v76.5c3.5,38.5,6.5,76,24.5,114.5c3,5.5,5.5,12,8,17.5h-42.5
		c-4-13.5-8-27-11-40.5c-2-9.5-3-19.5-4.5-29c0,0,0-0.5-0.5-0.5v-10.5l-5.5-57.5v-20.5h9.5c2-1,3.5-2.5,4.5-4v-26.5
		c-1-1-3.5-3.5-5.5-3.5h-8v-16H410.3z M370.3,339.7v16H242.8v-16H370.3z M233.8,339.7l0.5,69.5c-4.5,41.5-5,82-17.5,123.5
		c-1.5,4.5-2.5,10-3.5,15.5h-43c16.5-34,26.5-68,29.5-102l3-28.5v-28c2.5-0.5,8.5,0.5,10-4v-26.5c-1.5-4.5-7.5-3.5-10-3.5v-16H233.8
		z M437.3,321.2v13H178.8v-13H437.3z M463.3,284.2c0,8.5-11.5,29-22,27l-136.5,1l-132-0.5c-19-7.5-24.5-17-24.5-30.5
		c0-1.5,0.5-4.5,0.5-7c5.5,4.5,10.5,4,16.5,4.5c41.5,1,195-1,284.5-3c3-0.5,7.5-1.5,11.5-6C462.3,274.7,463.3,283.2,463.3,284.2z
		 M465.8,256.7c2,2,6,21.5,6,27.5c0,4.5,0,6.5-2.5,12c-4,8.5-15.5,26-27,23v16c-1,2-2.5,4-4,4h-20v17h22c2,0.5,3.5,1.5,3.5,3.5
		c0.5,4,0.5,11.5,0.5,13c0,2,1,16.5-4,16.5h-22v22c1,8.5,1.5,16.5,2,24.5c1,6.5,2,14,2.5,21c1,5.5,1.5,12,3,18
		c1.5,8.5,3.5,17.5,6.5,26.5c3.5,11,21,48.5,21,51c0,2,0.5,3.5-3,4.5l-54-0.5c-3.5,0.5-4.5-5-5-7c-2.5-10-5-19.5-7.5-29
		c1,8.5-7,14.5-13,14.5h-25v2.5l10.5,0.5c1,0.5,2,1,3,2v18.5c-0.5,0.5-1.5,1-2.5,1c-1.5,0-1.5-0.5-2.5-1v-15h-23.5v15
		c-0.5,0.5-1.5,1-2.5,1c-1.5,0-1.5-0.5-2.5-1c0-15-0.5-16-0.5-17c0-1.5,1-2.5,2-3.5l13.5-0.5v-3h-26v28c-1,2-2.5,4-4,4h-73
		c-1.5-0.5-3.5-2.5-3.5-4.5l-0.5-61.5c-1,3.5-1.5,7-2.5,10.5c-3.5,14.5-7.5,29.5-12,44c0,0.5-4,2-5.5,2h-52
		c-2.5-1.5-2.5-3.5-2.5-4.5s7-16.5,10.5-25c6-13.5,12.5-29,15-43c1.5-8,3.5-16.5,4.5-24.5c1-7.5,2-15.5,3-23c1-9,1.5-18,2.5-27
		v-20.5h-24.5c-1.5-1-3.5-2.5-3.5-3.5v-26c1-1.5,2-3.5,3.5-3.5h24.5v-17h-17.5c-1.5-1-3.5-2.5-3.5-3.5v-15.5
		c-15-1.5-33.5-17.5-33.5-31v-17.5c0-1.5,0.5-2,0.5-3c0.5-3.5,0-10.5,5-10.5c1.5,0,2,0.5,2.5,0.5c2,2,3.5,6.5,7,9
		c2.5,2.5,6,2.5,10,2.5c45,0,200-0.5,283.5-3c10-0.5,6.5-12,13.5-12C463.8,255.2,465.3,255.7,465.8,256.7z"/>
	<text transform="matrix(1 0 0 1 212.2602 306)" class="st6 st7 st8">CODER DOJO</text>
	<text transform="matrix(1 0 0 1 247.76 381.23)" class="st6 st7 st9">HORSHAM</text>
</g>
<g id="Computer_and_Desk">
</g>
<g id="Man">
	<ellipse class="st10" cx="341.3" cy="426.2" rx="18.2" ry="18.3"/>
</g>
<g id="Chair">
</g>
</svg>
