<svg id="Structure" xmlns="http://www.w3.org/2000/svg" viewBox="0 0 495.53 495.53">
	<defs>
		<style>
			.circles {
				fill: none;
				stroke: #1AB31E;
				stroke-linecap: round;
				stroke-linejoin: round;
				stroke-width: 8.5px;
				fill-rule: evenodd;

			}
			.image{
				fill: #1AB31E;
				fill-rule: evenodd;
			}
		</style>
	</defs>

	<title>CoderDojoLogoRedPATHS</title>

	<path class="circles" d="M62.5,396c0-134.49,109-243.51,243.52-243.51S549.53,261.49,549.53,396,440.51,639.5,306,639.5,62.5,530.48,62.5,396Z" transform="translate(-58.25 -148.22)"/>

	<path class="circles" d="M96.5,397.73c0-117,94.81-211.76,211.77-211.76S520,280.78,520,397.73,425.22,609.5,308.27,609.5,96.5,514.69,96.5,397.73Z" transform="translate(-58.25 -148.22)"/>

	<path class="image" d="M206,305.41a1.47,1.47,0,0,0,1.6-1.47,1.45,1.45,0,0,0-1.6-1.47h-5.22c-1.44,0-1.76-.1-2.4-1.44l-2.72-5.69a4.73,4.73,0,0,1-.67-2.27,5.1,5.1,0,0,1,.67-2.49l2.78-5.72c.61-1.25.84-1.38,2.21-1.38H206a1.47,1.47,0,0,0,1.6-1.47,1.45,1.45,0,0,0-1.6-1.47h-5.44a4.86,4.86,0,0,0-4.93,2.82l-2.76,6.07a7.92,7.92,0,0,0-.82,3.64,8,8,0,0,0,.79,3.45l2.76,6.1a4.82,4.82,0,0,0,4.8,2.79Z" transform="translate(-58.25 -148.22)"/>

	<path class="image" d="M228.26,290.41a5,5,0,0,1,.78,2.66,4.25,4.25,0,0,1-.58,2.17l-3.28,6.25c-.24.46-.48,1-1.17,1s-.92-.52-1.16-1l-3.29-6.25a4.35,4.35,0,0,1-.58-2.17,4.89,4.89,0,0,1,.79-2.66l3.08-6c.27-.52.44-1,1.16-1s.89.46,1.17,1Zm-.11-7.46a4.76,4.76,0,0,0-8.28,0l-3.06,6.48a8.14,8.14,0,0,0-.77,3.64,8.7,8.7,0,0,0,1,3.91l2.83,6a4.79,4.79,0,0,0,8.35,0l2.82-6a8.7,8.7,0,0,0,1-3.91,8.13,8.13,0,0,0-.76-3.64Z" transform="translate(-58.25 -148.22)"/>

	<path class="image" d="M246.48,283.48h.4c1.54,0,1.85,0,2.55,1.38l2.78,5.55a5.42,5.42,0,0,1,.83,2.7,4.46,4.46,0,0,1-.63,2.13l-2.95,5.85c-.6,1.22-.94,1.38-2.34,1.38h-.64Zm-2.94,19H242a1.48,1.48,0,1,0,0,2.94h5.07c2.62,0,4.12-.68,5.3-2.76l2.75-6a8.55,8.55,0,0,0,.85-3.62,8.46,8.46,0,0,0-.88-3.81l-2.66-5.78a5.07,5.07,0,0,0-5.05-2.94h-5.13c-1,0-1.85.41-1.85,1.47s.89,1.47,2,1.47h1.18Z" transform="translate(-58.25 -148.22)"/>

	<path class="image" d="M267,302.47v-8h4.71a1.47,1.47,0,1,0,0-2.93H267v-8h11a1.48,1.48,0,1,0,0-2.94H264.05v24.87H278a1.48,1.48,0,1,0,0-2.94Z" transform="translate(-58.25 -148.22)"/>

	<path class="image" d="M291,283.48h7.64c1,0,2.43.18,2.43,1.59v2.45c0,1.42-1.51,1.49-2.47,1.49H291Zm0,8.46h.79l9.42,12.61a1.57,1.57,0,0,0,1.3.9,1.47,1.47,0,0,0,1.5-1.51,3.35,3.35,0,0,0-.74-1.69l-7.34-10.31h3.15c2.63,0,4.93-1.41,4.93-4.42v-2.45c0-2.88-2.33-4.53-4.93-4.53h-11v23.31c0,1,.41,1.6,1.47,1.6s1.46-.58,1.46-1.6Z" transform="translate(-58.25 -148.22)"/>

	<path class="image" d="M342.49,283.48h.4c1.54,0,1.84,0,2.55,1.38l2.77,5.55a5.43,5.43,0,0,1,.84,2.7,4.57,4.57,0,0,1-.63,2.13l-2.95,5.85c-.6,1.22-.94,1.38-2.35,1.38h-.63Zm-2.94,19H338a1.48,1.48,0,1,0,0,2.94h5.08c2.61,0,4.12-.68,5.29-2.76l2.76-6a8.55,8.55,0,0,0,.85-3.62,8.46,8.46,0,0,0-.88-3.81l-2.66-5.78a5.08,5.08,0,0,0-5.06-2.94h-5.12c-1,0-1.86.41-1.86,1.47s.9,1.47,2,1.47h1.18Z" transform="translate(-58.25 -148.22)"/>

	<path class="image" d="M372.27,290.41a5,5,0,0,1,.78,2.66,4.25,4.25,0,0,1-.58,2.17l-3.28,6.25c-.24.46-.48,1-1.17,1s-.92-.52-1.16-1l-3.29-6.25a4.35,4.35,0,0,1-.58-2.17,4.89,4.89,0,0,1,.79-2.66l3.08-6c.27-.52.44-1,1.16-1s.89.46,1.17,1Zm-.11-7.46a4.76,4.76,0,0,0-8.28,0l-3.06,6.48a8.14,8.14,0,0,0-.77,3.64,8.7,8.7,0,0,0,1,3.91l2.83,6a4.79,4.79,0,0,0,8.35,0l2.82-6a8.7,8.7,0,0,0,1-3.91,8.26,8.26,0,0,0-.76-3.64Z" transform="translate(-58.25 -148.22)"/>

	<path class="image" d="M398,282.13c0-1-.41-1.62-1.47-1.62s-1.47.58-1.47,1.62v18.59c0,1.56-.81,1.75-2.12,1.75h-1.72c-1.84,0-2.22-.52-2.22-2.4v-4.21c0-1-.41-1.62-1.47-1.62s-1.47.59-1.47,1.62v4.7a4.67,4.67,0,0,0,.91,3.15c1.06,1.41,2.5,1.7,4.25,1.7H393c1.94,0,3.42-.5,4.41-2.17a5.53,5.53,0,0,0,.56-3Z" transform="translate(-58.25 -148.22)"/>

	<path class="image" d="M420.27,290.41a5,5,0,0,1,.79,2.66,4.25,4.25,0,0,1-.59,2.17l-3.28,6.25c-.24.46-.48,1-1.17,1s-.92-.52-1.16-1l-3.28-6.25a4.25,4.25,0,0,1-.59-2.17,5,5,0,0,1,.79-2.66l3.08-6c.27-.52.45-1,1.16-1s.89.46,1.17,1Zm-.1-7.46a4.77,4.77,0,0,0-8.29,0l-3.06,6.48a8.13,8.13,0,0,0-.76,3.64,8.82,8.82,0,0,0,1,3.91l2.83,6a4.79,4.79,0,0,0,8.35,0l2.82-6a8.7,8.7,0,0,0,1-3.91,8.13,8.13,0,0,0-.76-3.64Z" transform="translate(-58.25 -148.22)"/>

	<path class="image" d="M261.05,373v6.82c0,.76.27,1.18,1,1.18s1-.42,1-1.18V364.19c0-.75-.27-1.18-1-1.18s-1,.43-1,1.18V371h-7.57v-6.82c0-.75-.27-1.18-1-1.18s-1,.43-1,1.18v15.58c0,.76.28,1.18,1,1.18s1-.42,1-1.18V373Z" transform="translate(-58.25 -148.22)"/>

	<path class="image" d="M277.46,370.11a3.59,3.59,0,0,1,.59,1.94,3.05,3.05,0,0,1-.44,1.58l-2.47,4.56c-.18.34-.36.72-.87.72s-.7-.38-.88-.72l-2.47-4.56a3.05,3.05,0,0,1-.44-1.58,3.52,3.52,0,0,1,.6-1.94l2.31-4.34c.21-.38.34-.72.88-.72s.66.34.87.72Zm-.08-5.41a3.86,3.86,0,0,0-6.23,0l-2.1,4.69a6.49,6.49,0,0,0-.5,2.66,7,7,0,0,0,.64,2.86l1.94,4.33a3.86,3.86,0,0,0,6.27,0l1.94-4.33a7,7,0,0,0,.64-2.86,6.49,6.49,0,0,0-.5-2.66Z" transform="translate(-58.25 -148.22)"/>

	<path class="image" d="M287.48,365.05h5.74c.77,0,1.83.13,1.83,1.15V368c0,1-1.13,1.06-1.85,1.06h-5.72Zm0,5.9h.6l7.06,9.34c.22.38.47.66.86.66a1,1,0,0,0,1-1.11,2.71,2.71,0,0,0-.49-1.26L291.19,371h2.37c1.91,0,3.43-.93,3.43-3V366.2c0-2-1.54-3.08-3.43-3.08h-8v16.65c0,.75.27,1.18,1,1.18s1-.43,1-1.18Z" transform="translate(-58.25 -148.22)"/>

	<path class="image" d="M304.87,366c-.1-.15-.38-.44-.38-.65,0-.39.59-.34.87-.34h5.45c.8,0,1.24.12,1.24.94s.35,1.12.93,1.12,1-.62,1-1.39a2.68,2.68,0,0,0-.91-2,3.12,3.12,0,0,0-2.21-.64h-5.46a3,3,0,0,0-1.83.34,2.2,2.2,0,0,0-1,1.93,3.22,3.22,0,0,0,.64,2l8.4,10.58c.1.14.46.5.46.69,0,.35-.64.29-.85.29h-5.58c-.72,0-1.13-.1-1.13-.82s-.35-1.22-.91-1.22-1,.67-1,1.44a2.53,2.53,0,0,0,.91,1.92,3.3,3.3,0,0,0,2.26.62h5.66c1.5,0,2.61-.74,2.61-2.25a3.48,3.48,0,0,0-.68-2Z" transform="translate(-58.25 -148.22)"/>

	<path class="image" d="M329.05,373v6.82c0,.76.27,1.18,1,1.18s1-.42,1-1.18V364.19c0-.75-.27-1.18-1-1.18s-1,.43-1,1.18V371h-7.56v-6.82c0-.75-.27-1.18-1-1.18s-1,.43-1,1.18v15.58c0,.76.27,1.18,1,1.18s1-.42,1-1.18V373Z" transform="translate(-58.25 -148.22)"/>

	<path class="image" d="M344.09,375h-3.61l1.79-6.4h.05Zm-7.48,4.76c-.16.57.46,1.18,1.1,1.18a1.38,1.38,0,0,0,1.25-1.18l.87-2.82h4.9l.85,2.82c.16.57.53,1.18,1.24,1.18s1.27-.61,1.11-1.18l-4.44-15.55c-.16-.62-.44-1.21-1.2-1.21s-1,.57-1.17,1.21Z" transform="translate(-58.25 -148.22)"/>

	<path class="image" d="M359,367.07,356.15,363h-2.6V379.8c0,.74.27,1.15,1,1.15s1-.41,1-1.15V366h.05l2.51,3.28v.38c0,.72.27,1.39,1,1.39s1-.67,1-1.39v-.38L362.5,366h.05v13.75c0,.74.27,1.16,1,1.16s1-.42,1-1.16V363.1h-2.6Z" transform="translate(-58.25 -148.22)"/>

	<path class="image" d="M309.77,504.24c-11-.5-13.5,9-13.5,15,0,8,3.5,12.5,14,15.5v26.5H239.76v-67h70Zm-47-15h0Zm-18.5-8h33v2H262.76c-2,0-5.5,4-6.5,6h-18a3.79,3.79,0,0,1-2,1c.5-5.5,1-8.5,1-11.5C239.26,479.24,242.76,481.24,244.26,481.24Zm124-22.5c2.5-.5,10.5,3,10.5,8.5v52.5c.5,4.5-2.5,9.5-7.5,9.5h-51.5c-7,0-17.5-1.5-17.5-10,0-14.5,14-8,23-10v-42.5a10.3,10.3,0,0,1,11-8.5Zm-3.5-6h-32.5c-5-1-13,8-13,13.5v37.5h-4v-15l-26.5.5c-5.5-1-6-4.5-6-7,0-3,1.5-6,4.5-6h20c2.5-1,8-1,9-4.5v-13c.5-1.5,0-5,3.5-7,2.5-2,5-1,7.5-1,4-.5,11.5-.5,12.5-.5C348.27,450.24,360.27,449.74,364.77,452.74Zm-60.5-33c1.5,0,6,2.5,6,4.5v46l-23.5.5c-1.5.5-5,1-7,4H244.26c-1.5-1-4.5-3.5-4.5-4.5v-15.5a55.1,55.1,0,0,0,1-9c0-2,.5-4,.5-6s.5-4,.5-6,.5-4.5.5-6.51c1-2.5-2-7.5,3-7.5Zm55,6.5a17.5,17.5,0,1,1-17.5-17.5A17.09,17.09,0,0,1,359.27,426.23Zm11.5-36.5v25.5l3.5,39c-1-.5-2.5-1-3.5-1.5-1-8-10-7-15-7.5,8-6.5,9.5-13.5,9.5-19.51,0-13.5-11-23-23.5-23-14,0-23.5,10.5-23.5,23.5,0,6,2,13,9.5,19-3-.5-8.5-.5-11,2v-24c-.5-4.5-7-10-12-10H243.26v-23.5Zm69-28.5v23h-20.5v-23Zm-52,0v23H243.26v-23Zm-180,0v23h-35.5v-23Zm203-21.5v76.5c3.5,38.51,6.5,76,24.51,114.51,3,5.5,5.5,12,8,17.5H400.77c-4-13.5-8-27-11-40.5-2-9.5-3-19.5-4.5-29a.49.49,0,0,0-.5-.5v-10.5l-5.5-57.51v-20.5h9.5a11.8,11.8,0,0,0,4.5-4v-26.5c-1-1-3.5-3.5-5.5-3.5h-8v-16Zm-40,0v16H243.26v-16Zm-136.51,0,.5,69.5c-4.5,41.51-5,82-17.5,123.51a118.82,118.82,0,0,0-3.5,15.5h-43c16.5-34,26.5-68,29.5-102l3-28.51v-28c2.5-.5,8.5.5,10-4v-26.5c-1.5-4.5-7.5-3.5-10-3.5v-16Zm203.52-18.5v13H179.26v-13Zm26-37c0,8.5-11.5,29-22,27l-136.51,1-132-.5c-19-7.5-24.5-17-24.5-30.51,0-1.5.5-4.5.5-7,5.5,4.5,10.5,4,16.5,4.5,41.5,1,195-1,284.52-3a18.34,18.34,0,0,0,11.5-6C462.78,274.72,463.78,283.22,463.78,284.23Zm2.5-27.51c2,2,6,21.5,6,27.51,0,4.5,0,6.5-2.5,12-4,8.5-15.5,26-27,23v16c-1,2-2.5,4-4,4h-20v17h22c2,.5,3.5,1.5,3.5,3.5.5,4,.5,11.5.5,13,0,2,1,16.5-4,16.5h-22v22c1,8.5,1.5,16.5,2,24.51,1,6.5,2,14,2.5,21,1,5.5,1.5,12,3,18a185.67,185.67,0,0,0,6.5,26.5c3.5,11,21,48.5,21,51,0,2,.5,3.5-3,4.5l-54-.5c-3.5.5-4.5-5-5-7-2.5-10-5-19.5-7.5-29,1,8.5-7,14.5-13,14.5h-25v2.5l10.5.5a10.46,10.46,0,0,1,3,2v18.5a3.82,3.82,0,0,1-2.5,1c-1.5,0-1.5-.5-2.5-1v-15h-23.5v15a3.82,3.82,0,0,1-2.5,1c-1.5,0-1.5-.5-2.5-1,0-15-.5-16-.5-17,0-1.5,1-2.5,2-3.5l13.5-.5v-3h-26v28c-1,2-2.5,4-4,4h-73c-1.5-.5-3.5-2.5-3.5-4.5l-.5-61.5c-1,3.5-1.5,7-2.5,10.5-3.5,14.5-7.5,29.5-12,44,0,.5-4,2-5.5,2h-52a4.69,4.69,0,0,1-2.5-4.5c0-1,7-16.5,10.5-25,6-13.5,12.5-29,15-43,1.5-8,3.5-16.5,4.5-24.5,1-7.5,2-15.5,3-23,1-9,1.5-18,2.5-27v-20.5h-24.5c-1.5-1-3.5-2.5-3.5-3.5v-26c1-1.5,2-3.5,3.5-3.5h24.5v-17h-17.5c-1.5-1-3.5-2.5-3.5-3.5v-15.5c-15-1.5-33.5-17.5-33.5-31V271.72c0-1.5.5-2,.5-3,.5-3.5,0-10.5,5-10.5a10.17,10.17,0,0,1,2.5.5c2,2,3.5,6.5,7,9,2.5,2.5,6,2.5,10,2.5,45,0,200-.5,283.52-3,10-.5,6.5-12,13.5-12C464.28,255.22,465.78,255.72,466.28,256.72Z" transform="translate(-58.25 -148.22)"/>
</svg>